<svg xmlns="http://www.w3.org/2000/svg" xmlns:xlink="http://www.w3.org/1999/xlink" version="1.1" x="0px" y="0px" viewBox="0 0 100 100" enable-background="new 0 0 100 100" xml:space="preserve"><g><path d="M93.468,38.557c-0.493,0-0.949-0.321-1.1-0.818c-2.04-6.792-5.79-13.053-10.846-18.108   C76.421,14.53,70.096,10.76,63.229,8.729C53.191,5.761,42.434,6.521,32.94,10.868c-0.576,0.264-1.259,0.01-1.522-0.566   c-0.265-0.578-0.012-1.259,0.566-1.523C41.983,4.2,53.31,3.399,63.883,6.526c7.231,2.139,13.893,6.109,19.265,11.48   c5.323,5.321,9.272,11.916,11.422,19.071c0.183,0.607-0.163,1.248-0.77,1.431C93.689,38.542,93.578,38.557,93.468,38.557z"/></g><g><path d="M57.044,95.352c-0.565,0-1.057-0.416-1.137-0.992c-0.087-0.627,0.352-1.209,0.981-1.297   c9.387-1.297,17.905-5.539,24.634-12.268c3.889-3.889,6.958-8.393,9.124-13.393c0.252-0.58,0.929-0.852,1.511-0.596   c0.583,0.25,0.85,0.928,0.598,1.512c-2.281,5.264-5.514,10.008-9.607,14.102c-7.086,7.086-16.058,11.553-25.945,12.922   C57.149,95.348,57.097,95.352,57.044,95.352z"/></g><g><path d="M19.545,82.758c-0.293,0-0.587-0.113-0.813-0.338C11.379,75.068,6.866,65.74,5.682,55.443   c-0.911-7.917,0.266-15.958,3.406-23.246c0.252-0.583,0.927-0.852,1.51-0.601c0.582,0.251,0.852,0.927,0.602,1.509   c-2.982,6.921-4.101,14.556-3.234,22.076c1.125,9.773,5.41,18.631,12.393,25.613c0.449,0.449,0.449,1.176,0,1.625   C20.134,82.645,19.84,82.758,19.545,82.758z"/></g><g><path d="M88.24,43.813c-0.535,0-1.015-0.376-1.125-0.922c-1.435-7.117-4.923-13.606-10.084-18.769   c-2.671-2.671-5.707-4.903-9.019-6.634c-6.707-3.504-14.239-4.846-21.784-3.88c-0.628,0.082-1.205-0.364-1.285-0.993   c-0.081-0.63,0.364-1.205,0.993-1.286c8.013-1.026,16.015,0.398,23.14,4.122c3.521,1.839,6.742,4.21,9.579,7.048   c5.484,5.482,9.188,12.378,10.714,19.939c0.124,0.622-0.278,1.228-0.899,1.353C88.392,43.805,88.316,43.813,88.24,43.813z"/></g><g><path d="M24.037,78.266c-0.295,0-0.588-0.113-0.813-0.336c-4.416-4.416-7.746-9.869-9.631-15.773   c-2.194-6.871-2.453-14.209-0.748-21.225c1.693-6.962,5.281-13.338,10.379-18.433c0.448-0.45,1.176-0.45,1.624,0   c0.449,0.449,0.449,1.176,0,1.624c-4.798,4.8-8.177,10.799-9.77,17.354c-1.605,6.605-1.362,13.513,0.702,19.982   c1.801,5.635,4.852,10.631,9.067,14.846c0.449,0.451,0.449,1.178,0,1.627C24.625,78.152,24.33,78.266,24.037,78.266z"/></g><g><path d="M50.957,89.408c-4.603,0-9.203-0.801-13.529-2.387c-0.596-0.217-0.902-0.879-0.684-1.475   c0.219-0.598,0.879-0.9,1.475-0.682c7.369,2.701,15.582,2.971,23.125,0.764c5.89-1.727,11.313-4.951,15.688-9.326   c2.985-2.984,5.413-6.408,7.216-10.18c0.274-0.572,0.96-0.814,1.532-0.541c0.573,0.275,0.815,0.959,0.542,1.533   c-1.916,4.006-4.494,7.645-7.666,10.814C74.011,82.574,68.249,86,61.99,87.834C58.407,88.885,54.681,89.408,50.957,89.408z"/></g><g><path d="M63.68,80.426c-0.442,0-0.864-0.26-1.053-0.689c-0.255-0.58,0.009-1.258,0.59-1.514c3.482-1.529,6.623-3.678,9.338-6.395   c4.294-4.295,7.19-9.693,8.371-15.613c1.154-5.772,0.628-11.715-1.52-17.178c-0.231-0.592,0.06-1.258,0.649-1.49   c0.591-0.233,1.258,0.058,1.49,0.649c2.31,5.875,2.873,12.262,1.633,18.47c-1.271,6.365-4.384,12.17-8.999,16.785   c-2.916,2.92-6.294,5.232-10.04,6.877C63.99,80.393,63.833,80.426,63.68,80.426z"/></g><g><path d="M44.789,82.49c-0.072,0-0.148-0.006-0.223-0.021c-6.397-1.262-12.23-4.379-16.865-9.018c-0.449-0.447-0.449-1.174,0-1.623   s1.176-0.449,1.625,0c4.313,4.313,9.736,7.213,15.685,8.387c0.622,0.123,1.028,0.727,0.905,1.348   C45.808,82.111,45.328,82.49,44.789,82.49z"/></g><g><path d="M19.544,46.787c-0.056,0-0.11-0.002-0.167-0.013c-0.628-0.09-1.063-0.674-0.972-1.3c1.023-7.046,4.237-13.443,9.296-18.501   c2.159-2.159,4.592-4.001,7.232-5.477c6.225-3.48,13.561-4.842,20.647-3.832c0.628,0.09,1.065,0.671,0.977,1.299   c-0.091,0.628-0.677,1.065-1.3,0.976c-6.594-0.937-13.416,0.327-19.203,3.562c-2.455,1.372-4.72,3.087-6.729,5.097   c-4.705,4.706-7.695,10.654-8.646,17.207C20.597,46.376,20.105,46.787,19.544,46.787z"/></g><g><path d="M68.875,69.297c-0.294,0-0.589-0.111-0.812-0.338c-0.449-0.449-0.449-1.176,0-1.623c2.719-2.719,4.702-5.936,5.894-9.559   c1.375-4.189,1.581-8.683,0.596-12.985c-1.015-4.425-3.257-8.471-6.489-11.702c-2.057-2.056-4.424-3.706-7.037-4.905   c-0.577-0.265-0.83-0.946-0.565-1.523c0.264-0.577,0.947-0.832,1.522-0.565c2.863,1.313,5.455,3.118,7.704,5.368   c3.538,3.537,5.994,7.967,7.104,12.813c1.079,4.71,0.854,9.627-0.652,14.217c-1.305,3.967-3.476,7.488-6.452,10.463   C69.463,69.186,69.169,69.297,68.875,69.297z"/></g><g><path d="M26.935,59.588c-0.478,0-0.923-0.301-1.087-0.777c-2.177-6.354-1.875-13.226,0.848-19.355   c1.322-2.978,3.172-5.665,5.497-7.99c4.136-4.136,9.372-6.739,15.14-7.529c0.629-0.083,1.208,0.354,1.295,0.982   c0.085,0.629-0.354,1.209-0.983,1.295c-5.267,0.72-10.048,3.098-13.826,6.877c-2.125,2.125-3.813,4.58-5.022,7.297   c-2.486,5.598-2.762,11.876-0.773,17.679c0.206,0.6-0.114,1.254-0.715,1.459C27.184,59.568,27.058,59.588,26.935,59.588z"/></g><g><path d="M50.932,76.738c-2.84,0-5.673-0.455-8.405-1.369c-3.915-1.309-7.392-3.465-10.334-6.41c-0.449-0.449-0.449-1.176,0-1.623   c0.448-0.449,1.176-0.449,1.625,0c2.688,2.688,5.864,4.658,9.438,5.854c4.521,1.512,9.348,1.658,13.961,0.422   c0.612-0.16,1.243,0.201,1.407,0.814c0.164,0.611-0.2,1.244-0.813,1.406C55.549,76.439,53.238,76.738,50.932,76.738z"/></g><g><path d="M50.932,70.4c-2.595,0-5.17-0.502-7.592-1.484c-0.589-0.238-0.871-0.908-0.633-1.498c0.238-0.586,0.907-0.871,1.496-0.631   c3.121,1.268,6.531,1.625,9.864,1.039c3.617-0.639,6.91-2.357,9.52-4.965c1.447-1.449,2.625-3.109,3.499-4.941   c1.539-3.225,2.072-6.806,1.545-10.354c-0.094-0.629,0.34-1.213,0.968-1.306c0.625-0.098,1.212,0.338,1.305,0.967   c0.597,4.004-0.006,8.043-1.742,11.684c-0.988,2.064-2.316,3.941-3.949,5.572c-2.945,2.947-6.661,4.883-10.745,5.605   C53.294,70.297,52.111,70.4,50.932,70.4z"/></g><g><path d="M37.48,64.822c-0.295,0-0.588-0.113-0.813-0.338c-3.152-3.152-5.133-7.146-5.729-11.551   c-0.387-2.859-0.151-5.826,0.683-8.58c0.954-3.157,2.699-6.065,5.047-8.413c0.449-0.449,1.176-0.449,1.625,0   c0.449,0.448,0.449,1.176,0,1.625c-2.081,2.08-3.627,4.658-4.473,7.452c-0.738,2.443-0.947,5.071-0.605,7.607   c0.529,3.9,2.285,7.441,5.078,10.236c0.449,0.447,0.449,1.174,0,1.623C38.068,64.709,37.774,64.822,37.48,64.822z"/></g><g><path d="M58.417,33.853c-0.15,0-0.303-0.03-0.45-0.093c-2.989-1.277-6.281-1.713-9.512-1.26c-0.629,0.087-1.209-0.351-1.298-0.98   c-0.087-0.627,0.351-1.209,0.979-1.296c3.647-0.509,7.358-0.017,10.732,1.423c0.583,0.25,0.855,0.923,0.605,1.507   C59.289,33.59,58.863,33.853,58.417,33.853z"/></g><g><path d="M59.907,60.33c-0.294,0-0.588-0.113-0.813-0.336c-0.448-0.451-0.448-1.178,0-1.627c1.27-1.268,2.2-2.766,2.771-4.455   c0.729-2.158,0.805-4.467,0.219-6.674c-0.162-0.611,0.203-1.243,0.816-1.403c0.615-0.163,1.242,0.203,1.404,0.814   c0.702,2.643,0.612,5.409-0.263,8.001c-0.684,2.023-1.802,3.822-3.322,5.344C60.495,60.217,60.201,60.33,59.907,60.33z"/></g><g><path d="M41.973,42.395c-0.295,0-0.588-0.113-0.813-0.335c-0.449-0.449-0.449-1.178,0-1.626c1.905-1.905,4.301-3.203,6.929-3.754   c2.636-0.554,5.354-0.332,7.857,0.639c0.592,0.229,0.886,0.895,0.656,1.486c-0.229,0.592-0.898,0.885-1.486,0.657   c-2.089-0.81-4.356-0.995-6.556-0.534c-2.189,0.458-4.188,1.541-5.776,3.132C42.561,42.282,42.266,42.395,41.973,42.395z"/></g><g><path d="M47.67,63.617c-0.097,0-0.196-0.012-0.295-0.039c-2.344-0.623-4.492-1.863-6.215-3.584   c-1.723-1.725-2.963-3.873-3.585-6.215c-0.62-2.332-0.62-4.797,0-7.133c0.163-0.611,0.794-0.975,1.405-0.814   c0.613,0.163,0.979,0.792,0.815,1.405c-0.518,1.947-0.518,4.004,0,5.952c0.519,1.951,1.552,3.742,2.988,5.178   s3.229,2.471,5.181,2.99c0.613,0.162,0.979,0.791,0.815,1.406C48.643,63.277,48.18,63.617,47.67,63.617z"/></g><g><path d="M50.939,57.717c-2.002,0-3.885-0.781-5.303-2.201c-2.925-2.924-2.925-7.681,0-10.605c1.418-1.418,3.301-2.2,5.303-2.2   s3.886,0.782,5.304,2.2c2.925,2.924,2.925,7.682,0,10.605C54.825,56.936,52.941,57.717,50.939,57.717z M50.939,45.008   c-1.387,0-2.695,0.542-3.678,1.526c-2.029,2.03-2.029,5.33,0,7.359c0.982,0.982,2.291,1.525,3.678,1.525   c1.389,0,2.695-0.543,3.68-1.525c2.028-2.029,2.028-5.329,0-7.359C53.635,45.549,52.328,45.008,50.939,45.008z"/></g></svg>