<?xml version="1.0" encoding="UTF-8"?><svg id="_层_2" xmlns="http://www.w3.org/2000/svg" viewBox="0 0 824.21 982.23"><defs><style>.cls-1{fill:#fff;}.cls-1,.cls-2,.cls-3,.cls-4{stroke:#000;stroke-miterlimit:10;stroke-width:5px;}.cls-2{fill:#80c5d2;}.cls-3{fill:#d85050;}.cls-4{fill:#7b4bed;}</style></defs><g id="_层_1-2"><g><path class="cls-1" d="M119.17,309.18l1.84-1.87h35.22l1.84,1.87v23.47h48.62l42.31-.8,1.84,1.87v28l-1.84,1.87-42.31-.8H57.67v66.4c0,60.54-6.83,96.27-24.7,129.07-.79,1.6-1.84,2.13-2.63,2.13s-1.58-.27-2.63-1.33l-24.71-23.73c13.93-30.67,18.92-57.87,18.92-108.54v-49.6l-.79-43.47,1.84-1.87,43.63,.8h52.56v-23.47Zm111.17,168.81c1.05,1.07,1.58,2.4,1.58,3.73,0,1.07-.53,2.4-1.84,4-10.78,11.73-25.23,24.8-41.79,35.74,21.03,4.53,44.42,7.2,67.54,7.47l-17.35,29.6c-1.58,2.4-2.89,3.47-5.78,3.2-28.91-2.13-55.46-9.33-79.9-20-23.92,10.4-51.78,18.13-81.47,21.33-3.15,.27-4.21-.8-5.78-3.2l-17.61-27.73c26.81-1.6,50.99-5.6,70.43-10.4-8.67-6.13-16.82-12.53-23.39-19.2l.53-2.67,17.61-9.87h-13.93l-31.8,.8-1.58-1.6v-26.13l1.58-1.33,31.8,.8h90.15l24.71-1.33,16.29,16.8Zm-59.13-93.87v-14.13l1.84-1.87h30.22l2.1,1.6v14.4h7.62l34.17-.8,1.58,1.33v26.93l-1.58,1.33-34.17-.8h-7.62v4.27l.79,34.4-2.37,1.87-26.81-.8h-44.42l-29.7,.8-1.84-1.87,.79-33.07v-5.6h-2.89l-34.43,.8-1.84-1.6v-26.4l1.58-1.6,34.69,.8h2.89v-14.4l1.84-1.87h29.17l2.1,1.6v14.67h36.27Zm-44.15,105.87c8.41,6.67,17.08,12.27,26.28,17.33,10.25-5.33,19.97-11.2,28.12-17.33h-54.4Zm7.88-64.8h36.27v-13.07h-36.27v13.07Z"/><path class="cls-1" d="M765.35,203.95l42.58-.8,1.58,1.33v30.4l-1.58,1.33-42.58-.8h-47.57l1.05,56.8h-40.74l1.05-56.8h-77.53l-42.31,.8-1.84-1.6v-29.87l1.58-1.6,42.58,.8h2.89v-40l-.79-28.8,1.58-1.87,30.22,.8h43.89v-33.33h-54.67c-10.51,17.07-21.29,31.47-31.28,41.87-1.58,1.6-2.89,2.13-4.47,2.13-1.31,0-2.63-.53-4.21-1.6l-26.02-17.6c28.38-29.6,45.21-56.8,56.77-90.94l2.1-.27,34.17,13.07,.26,2.93c-3.15,6.67-6.31,13.07-9.72,19.2h119.32l39.95-.8,1.58,1.33v30.13l-1.58,1.33-39.95-.8h-44.15v33.33h28.91l39.95-.8,1.58,1.33v28.54l-1.58,1.33-39.95-.8h-28.91v40.27h47.83Zm-85.94-40.27h-38.9v40.27h38.9v-40.27Z"/></g><g id="_色"><path class="cls-4" d="M594.58,689.87c-13.04-8.45-25.33-12.39-48.05-14.93,42.83-7.6,64.06-26.19,64.06-56.04,0-16.05-7.08-29.57-20.86-39.99-21.23-15.49-54.75-23.94-95.35-23.94s-69.7,7.05-92,20.77c-4.65,.04-9.65,.07-15.05,.07h-86.78c8.57-12.39,22.35-22.25,54.75-39.14,37.99-20,41.71-21.97,54.01-30.13,23.09-14.36,34.27-31.82,34.27-52.38,0-1.64-.08-3.25-.23-4.85,4.1,.24,8.27,.37,12.53,.37,47.3,0,86.41-15.77,108.76-43.93,14.15-17.74,23.46-48.72,23.46-78.29,0-23.09-4.84-44.78-14.52-64.77-5.59-11.26-14.9-21.97-27.19-31.26-22.72-16.9-54.38-26.19-90.5-26.19-40.54,0-74.95,11.78-98.22,33.5-4.7,.05-9.75,.07-15.22,.07h-86.78c8.57-12.39,22.35-22.25,54.75-39.14,37.99-19.99,41.71-21.97,54.01-30.13,23.09-14.36,34.27-31.82,34.27-52.38,0-12.11-4.1-23.09-12.29-32.95-18.62-22.81-56.98-35.48-107.27-35.48-43.58,0-77.47,10.14-98.7,29.01-14.9,13.24-21.6,25.63-27.19,50.13l78.21,6.2c1.86-11.83,4.1-17.46,9.31-23.66,8.19-9.57,20.86-14.08,38.73-14.08,23.84,0,39.85,9.01,39.85,22.53s-7.82,20.28-39.85,36.61c-37.99,19.43-52.14,27.6-66.3,37.45-26.07,18.3-43.95,39.71-53.63,63.08-4.47,10.98-6.33,19.43-7.82,33.23,13.78-.84,22.35-1.13,55.87-1.13h121.77c-3.42,12.57-5.35,26.23-5.35,39.66,0,20.45,3.91,39.99,11.69,58.23-3.83-.16-7.72-.25-11.7-.25-43.58,0-77.47,10.14-98.7,29.01-14.9,13.24-21.6,25.63-27.19,50.13l78.21,6.2c1.86-11.83,4.1-17.46,9.31-23.66,8.19-9.57,20.86-14.08,38.73-14.08,23.84,0,39.85,9.01,39.85,22.53s-7.82,20.28-39.85,36.61c-37.99,19.43-52.14,27.6-66.3,37.45-26.07,18.31-43.95,39.71-53.63,63.08-4.47,10.98-6.33,19.43-7.82,33.23,13.78-.84,22.35-1.13,55.87-1.13h130.73c21.89,0,36.38,.39,52.98,1.32l11.23,1.22c5.59-18.02,18.99-25.91,45.44-25.91,24.58,0,38.73,8.73,38.73,23.94,0,18.02-17.51,27.03-52.89,27.03-14.53,0-26.82-.56-39.48-1.69v48.44c14.53-1.13,31.29-1.69,45.81-1.69s26.07,1.41,34.64,3.66c12.66,3.66,20.11,12.67,20.11,24.22,0,17.18-18.25,28.16-47.3,28.16-17.88,0-32.78-4.22-42.83-12.11-5.96-4.79-8.19-8.73-10.43-18.02l-78.96,10.42c2.61,7.32,4.1,10.98,6.33,14.93,8.19,15.49,21.23,27.88,38.36,36.33,19.74,9.86,53.26,15.77,86.78,15.77,27.93,0,58.1-4.22,77.47-10.98,13.78-4.79,26.82-12.67,35.01-21.12,9.68-9.86,14.9-23.09,14.9-37.45,0-16.33-8.94-30.98-24.58-41.68ZM455.89,252.83c36.13,0,55.5,25.35,55.5,73.5s-18.62,75.47-55.12,75.47-55.87-25.91-55.87-76.32c0-45.9,20.48-72.66,55.5-72.66Z"/><path class="cls-2" d="M635.14,666.76c-13.04-8.45-25.33-12.39-48.05-14.93,42.83-7.6,64.06-26.19,64.06-56.04,0-16.05-7.08-29.57-20.86-39.99-21.23-15.49-54.75-23.94-95.35-23.94s-69.7,7.05-92,20.77c-4.65,.04-9.65,.07-15.05,.07h-86.78c8.57-12.39,22.35-22.25,54.75-39.14,37.99-20,41.71-21.97,54.01-30.13,23.09-14.36,34.27-31.82,34.27-52.38,0-1.64-.08-3.25-.23-4.85,4.1,.24,8.27,.37,12.53,.37,47.3,0,86.41-15.77,108.76-43.93,14.15-17.74,23.46-48.72,23.46-78.29,0-23.09-4.84-44.78-14.52-64.77-5.59-11.26-14.9-21.97-27.19-31.26-22.72-16.9-54.38-26.19-90.5-26.19-40.54,0-74.95,11.78-98.22,33.5-4.7,.05-9.75,.07-15.22,.07h-86.78c8.57-12.39,22.35-22.25,54.75-39.14,37.99-19.99,41.71-21.97,54.01-30.13,23.09-14.36,34.27-31.82,34.27-52.38,0-12.11-4.1-23.09-12.29-32.95-18.62-22.81-56.98-35.48-107.27-35.48-43.58,0-77.47,10.14-98.7,29.01-14.9,13.24-21.6,25.63-27.19,50.13l78.21,6.2c1.86-11.83,4.1-17.46,9.31-23.66,8.19-9.57,20.86-14.08,38.73-14.08,23.84,0,39.85,9.01,39.85,22.53s-7.82,20.28-39.85,36.61c-37.99,19.43-52.14,27.6-66.3,37.45-26.07,18.3-43.95,39.71-53.63,63.08-4.47,10.98-6.33,19.43-7.82,33.23,13.78-.84,22.35-1.13,55.87-1.13h121.77c-3.42,12.57-5.35,26.23-5.35,39.66,0,20.45,3.91,39.99,11.69,58.23-3.83-.16-7.72-.25-11.7-.25-43.58,0-77.47,10.14-98.7,29.01-14.9,13.24-21.6,25.63-27.19,50.13l78.21,6.2c1.86-11.83,4.1-17.46,9.31-23.66,8.19-9.57,20.86-14.08,38.73-14.08,23.84,0,39.85,9.01,39.85,22.53s-7.82,20.28-39.85,36.61c-37.99,19.43-52.14,27.6-66.3,37.45-26.07,18.31-43.95,39.71-53.63,63.08-4.47,10.98-6.33,19.43-7.82,33.23,13.78-.84,22.35-1.13,55.87-1.13h130.73c21.89,0,36.38,.39,52.98,1.32l11.23,1.22c5.59-18.02,18.99-25.91,45.44-25.91,24.58,0,38.73,8.73,38.73,23.94,0,18.02-17.51,27.03-52.89,27.03-14.53,0-26.82-.56-39.48-1.69v48.44c14.53-1.13,31.29-1.69,45.81-1.69s26.07,1.41,34.64,3.66c12.66,3.66,20.11,12.67,20.11,24.22,0,17.18-18.25,28.16-47.3,28.16-17.88,0-32.78-4.22-42.83-12.11-5.96-4.79-8.19-8.73-10.43-18.02l-78.96,10.42c2.61,7.32,4.1,10.98,6.33,14.93,8.19,15.49,21.23,27.88,38.36,36.33,19.74,9.86,53.26,15.77,86.78,15.77,27.93,0,58.1-4.22,77.47-10.98,13.78-4.79,26.82-12.67,35.01-21.12,9.68-9.86,14.9-23.09,14.9-37.45,0-16.33-8.94-30.98-24.58-41.68ZM496.45,229.72c36.13,0,55.5,25.35,55.5,73.5s-18.62,75.47-55.12,75.47-55.87-25.91-55.87-76.32c0-45.9,20.48-72.66,55.5-72.66Z"/><path class="cls-3" d="M677.33,643.66c-13.04-8.45-25.33-12.39-48.05-14.93,42.83-7.6,64.06-26.19,64.06-56.04,0-16.05-7.08-29.57-20.86-39.99-21.23-15.49-54.75-23.94-95.35-23.94s-69.7,7.05-92,20.77c-4.65,.04-9.65,.07-15.05,.07h-86.78c8.57-12.39,22.35-22.25,54.75-39.14,37.99-20,41.71-21.97,54.01-30.13,23.09-14.36,34.27-31.82,34.27-52.38,0-1.64-.08-3.25-.23-4.85,4.1,.24,8.27,.37,12.53,.37,47.3,0,86.41-15.77,108.76-43.93,14.15-17.74,23.46-48.72,23.46-78.29,0-23.09-4.84-44.78-14.52-64.77-5.59-11.26-14.9-21.97-27.19-31.26-22.72-16.9-54.38-26.19-90.5-26.19-40.54,0-74.95,11.78-98.22,33.5-4.7,.05-9.75,.07-15.22,.07h-86.78c8.57-12.39,22.35-22.25,54.75-39.14,37.99-19.99,41.71-21.97,54.01-30.13,23.09-14.36,34.27-31.82,34.27-52.38,0-12.11-4.1-23.09-12.29-32.95C450.52,15.17,412.15,2.5,361.87,2.5c-43.58,0-77.47,10.14-98.7,29.01-14.9,13.24-21.6,25.63-27.19,50.13l78.21,6.2c1.86-11.83,4.1-17.46,9.31-23.66,8.19-9.57,20.86-14.08,38.73-14.08,23.84,0,39.85,9.01,39.85,22.53s-7.82,20.28-39.85,36.61c-37.99,19.43-52.14,27.6-66.3,37.45-26.07,18.3-43.95,39.71-53.63,63.08-4.47,10.98-6.33,19.43-7.82,33.23,13.78-.84,22.35-1.13,55.87-1.13h121.77c-3.42,12.57-5.35,26.23-5.35,39.66,0,20.45,3.91,39.99,11.69,58.23-3.83-.16-7.72-.25-11.7-.25-43.58,0-77.47,10.14-98.7,29.01-14.9,13.24-21.6,25.63-27.19,50.13l78.21,6.2c1.86-11.83,4.1-17.46,9.31-23.66,8.19-9.57,20.86-14.08,38.73-14.08,23.84,0,39.85,9.01,39.85,22.53s-7.82,20.28-39.85,36.61c-37.99,19.43-52.14,27.6-66.3,37.45-26.07,18.31-43.95,39.71-53.63,63.08-4.47,10.98-6.33,19.43-7.82,33.23,13.78-.84,22.35-1.13,55.87-1.13h130.73c21.89,0,36.38,.39,52.98,1.32l11.23,1.22c5.59-18.02,18.99-25.91,45.44-25.91,24.58,0,38.73,8.73,38.73,23.94,0,18.02-17.51,27.03-52.89,27.03-14.53,0-26.82-.56-39.48-1.69v48.44c14.53-1.13,31.29-1.69,45.81-1.69s26.07,1.41,34.64,3.66c12.66,3.66,20.11,12.67,20.11,24.22,0,17.18-18.25,28.16-47.3,28.16-17.88,0-32.78-4.22-42.83-12.11-5.96-4.79-8.19-8.73-10.43-18.02l-78.96,10.42c2.61,7.32,4.1,10.98,6.33,14.93,8.19,15.49,21.23,27.88,38.36,36.33,19.74,9.86,53.26,15.77,86.78,15.77,27.93,0,58.1-4.22,77.47-10.98,13.78-4.79,26.82-12.67,35.01-21.12,9.68-9.86,14.9-23.09,14.9-37.45,0-16.33-8.94-30.98-24.58-41.68Zm-138.69-437.04c36.13,0,55.5,25.35,55.5,73.5s-18.62,75.47-55.12,75.47-55.87-25.91-55.87-76.32c0-45.9,20.48-72.66,55.5-72.66Z"/></g><g id="HKU"><ellipse class="cls-3" cx="133.42" cy="90.37" rx="60.22" ry="118.17" transform="translate(14.33 198.93) rotate(-76.46)"/><g><path d="M70.78,85.97l-4.45-1.07-4.37,10.1-3.5-.84,4.37-10.1-5.39-1.3-4.37,10.1-3.56-.86,4.37-10.1-4.45-1.07,1.62-3.74,4.45,1.07,5.08-11.66-4.45-1.07,1.62-3.74,4.45,1.07,4.45-10.19,3.51,.84-4.45,10.19,5.39,1.3,4.39-10.2,3.56,.86-4.45,10.19,4.5,1.08-1.62,3.74-4.5-1.08-5.02,11.67,4.45,1.07-1.62,3.74Zm-11.72-6.95l5.39,1.3,5.02-11.67-5.39-1.3-5.02,11.67Z"/><path d="M132.03,68.39l-9.89,41.1-9.68-2.33,4.12-17.12-13.6-3.28-4.12,17.12-9.68-2.33,9.9-41.1,9.68,2.33-3.93,16.33,13.6,3.28,3.93-16.33,9.68,2.33Z"/><path d="M147.27,83.76c-.56,2.32-1.21,4.33-1.98,6.6l.21,.05c1.85-1.95,3.94-3.96,6.01-5.63l11.35-8.97,11.77,2.83-19.44,13.38,9.6,27.73-11.67-2.81-5.94-19.49-3.85,2.64-3.3,13.7-9.52-2.29,9.9-41.1,9.52,2.29-2.66,11.07Z"/><path d="M212.36,87.72l-6.34,26.35c-2.55,10.59-10.48,13.64-20.16,11.31-9.63-2.32-15.35-8.66-12.8-19.25l6.34-26.35,9.68,2.33-6.24,25.93c-1.5,6.22,.71,9.48,4.68,10.44s7.42-.95,8.92-7.16l6.24-25.92,9.68,2.33Z"/></g></g><g id="CUHK"><rect class="cls-2" x="8.31" y="585.4" width="250.22" height="100.12"/><g><path d="M55.53,646.22h-4.57l-1.88,10.84h-3.61l1.88-10.84h-5.54l-1.88,10.84h-3.66l1.88-10.84h-4.57l.7-4.01h4.57l2.21-12.52h-4.57l.7-4.01h4.57l1.94-10.95h3.61l-1.94,10.95h5.54l1.88-10.95h3.66l-1.94,10.95h4.63l-.7,4.01h-4.63l-2.15,12.52h4.57l-.7,4.01Zm-13.02-4.01h5.54l2.15-12.52h-5.54l-2.15,12.52Z"/><path d="M109.14,643.51c-2.31,9.59-7.48,14.09-16.09,14.09-11.95,0-18.14-7.32-18.14-21.68,0-13.39,6.78-21.68,17.65-21.68,8.77,0,14.48,4.77,15.98,13.39l-10.01,2.28c-.54-5.96-2.58-8.62-6.51-8.62-4.36,0-6.89,5.09-6.89,14.25s2.8,15.01,7.21,15.01c3.77,0,5.6-2.38,6.46-8.35l10.33,1.3Z"/><path d="M148.7,614.78v27.1c0,10.89-7,15.72-16.95,15.72s-16.95-4.82-16.95-15.72v-27.1h9.96v26.67c0,6.4,2.91,9.05,7,9.05s7-2.66,7-9.05v-26.67h9.96Z"/><path d="M191.22,614.78v42.28h-9.96v-17.61h-13.99v17.61h-9.96v-42.28h9.96v16.8h13.99v-16.8h9.96Z"/><path d="M209.63,626.16c0,2.38-.16,4.5-.38,6.88h.22c1.35-2.33,2.91-4.77,4.52-6.88l8.93-11.38h12.11l-15.77,17.56,15.82,24.71h-12l-10.33-17.56-3.12,3.47v14.09h-9.79v-42.28h9.79v11.38Z"/></g></g><g id="HKUST"><rect class="cls-4" x="497.73" y="379.85" width="323.98" height="100.12" rx="50.06" ry="50.06"/><g><path d="M560.39,440.66h-4.57l-1.88,10.84h-3.61l1.88-10.84h-5.54l-1.88,10.84h-3.66l1.88-10.84h-4.58l.7-4.01h4.57l2.21-12.52h-4.58l.7-4.01h4.57l1.94-10.95h3.61l-1.94,10.95h5.54l1.88-10.95h3.66l-1.94,10.95h4.63l-.7,4.01h-4.63l-2.15,12.52h4.58l-.7,4.01Zm-13.02-4.01h5.54l2.15-12.52h-5.54l-2.15,12.52Z"/><path d="M615.83,409.23v42.28h-9.96v-17.61h-13.99v17.61h-9.96v-42.28h9.96v16.8h13.99v-16.8h9.96Z"/><path d="M634.24,420.61c0,2.38-.16,4.5-.38,6.88h.22c1.34-2.33,2.91-4.77,4.52-6.88l8.93-11.38h12.11l-15.77,17.56,15.82,24.71h-12l-10.33-17.56-3.12,3.47v14.09h-9.79v-42.28h9.79v11.38Z"/><path d="M698.45,409.23v27.1c0,10.89-7,15.72-16.95,15.72s-16.95-4.82-16.95-15.72v-27.1h9.96v26.67c0,6.4,2.91,9.05,7,9.05s7-2.66,7-9.05v-26.67h9.96Z"/><path d="M714.27,437.52c.7,4.77,2.85,7.37,7.32,7.37,2.53,0,4.41-1.3,4.41-4.01,0-3.04-1.83-4.23-8.45-6.56-7.64-2.71-11.57-6.45-11.57-12.9,0-7.97,5.6-12.74,14.1-12.74s13.88,4.34,15.07,12.41l-9.58,2c-.38-5.09-2.37-7.75-5.92-7.75-2.74,0-4.25,1.73-4.25,4.34,0,2.87,1.99,4.39,8.02,6.34,8.93,2.87,12.7,6.23,12.7,13.17,0,7.86-5.65,12.9-15.12,12.9s-15.5-4.5-16.63-13.33l9.9-1.25Z"/><path d="M771.11,417.09h-11.3v34.42h-9.69v-34.42h-11.3v-7.86h32.29v7.86Z"/></g></g><g><path class="cls-1" d="M347.4,842.83v25.03l15.31-2.61v35.7l-15.31,2.39v44.4c0,8.41-.89,14.58-2.67,18.5-1.78,3.92-4.87,6.64-9.28,8.16s-11.56,2.86-21.46,4.03l-9.74,1.09-11.37-35.91,6.73-1.09c5.57-1.01,9.28-2.21,11.14-3.59,1.86-1.38,2.78-4.24,2.78-8.6v-21.77c-10.67,1.6-18.48,2.83-23.43,3.7l-2.78-36.13,26.22-3.48v-29.82h-19.02v-33.95h19.02v-32l33.87,.87v31.12h15.08v33.95h-15.08Zm155.44,105.56l-24.36,29.82c-11.45-7.26-22.2-15.75-32.25-25.47-8.35,7.83-17.17,15.09-26.45,21.77l-15.08-13.93v18.07h-34.34v-197.41h117.86v39.18c0,5.66-1.04,10.05-3.13,13.17-2.09,3.12-5.14,5.37-9.16,6.75-4.02,1.38-9.51,2.36-16.47,2.94l-25.06,2.39-8.58-20.68,19.26-1.74c3.4-.29,5.72-.94,6.96-1.96,1.24-1.01,1.86-2.83,1.86-5.44v-4.35h-49.19v39.61h84.22v31.56c-4.02,15.96-11.22,31.2-21.58,45.71,7.42,4.93,19.26,11.61,35.5,20.02Zm-98.14-6.31c7.43-4.79,13.92-9.5,19.49-14.15-6.96-9.43-13.46-19.3-19.49-29.6v43.75Zm49.88-60.94h-29.23c7.11,12.19,13.14,20.97,18.1,26.34,5.26-7.84,8.97-16.61,11.14-26.34Z"/><path class="cls-1" d="M648.54,844.14h79.35v32.87h-208.11v-32.87h37.58l-32.48-14.37c5.26-7.11,10.28-15.45,15.08-25.03,4.79-9.58,8.5-18.5,11.14-26.77l36.19,7.62-3.71,10.67h26.22v-19.59l38.74,.87v18.72h65.66v34.61h-65.66v13.28Zm60.79,131.46h-170.75v-85.76h170.75v85.76Zm-141.52-144.74c-3.4,6.09-6.03,10.52-7.89,13.28h49.88v-13.28h-41.99Zm104.4,90.76h-96.75v22.64h96.75v-22.64Z"/></g></g></svg>