<?xml version="1.0" encoding="UTF-8"?><svg id="_层_2" xmlns="http://www.w3.org/2000/svg" viewBox="0 0 970 608.29"><defs><style>.cls-1{fill:#fff;}.cls-1,.cls-2,.cls-3,.cls-4{stroke:#000;stroke-miterlimit:10;stroke-width:5px;}.cls-2{fill:#80c5d2;}.cls-3{fill:#d85050;}.cls-4{fill:#7b4bed;}</style></defs><g id="_层_1-2"><g id="_块"><rect class="cls-3" x="28.51" y="126.13" width="537.79" height="337.99"/><rect class="cls-2" x="410.57" y="74.89" width="291.76" height="255.74"/><rect class="cls-4" x="297.41" y="354.68" width="586.53" height="188.82"/><rect class="cls-2" x="81.18" y="517.61" width="442.94" height="88.17"/><rect class="cls-3" x="833.79" y="252.75" width="129.2" height="211.37"/></g><g id="TripleUni_Review"><g><path d="M38.96,65.49c-.61,.38-1.21,.48-1.81,.28-.61-.19-.91-.65-.91-1.41,.91-3.01,1.81-6.68,2.72-11.01,.91-4.32,1.66-8.19,2.27-11.57,0-3.76,1.81-6.96,5.44-9.6,7.86-5.27,16.7-10.16,26.53-14.68,9.82-4.52,19.57-8.09,29.26-10.73C120.3,2.26,138.89,0,158.25,0c23.88,0,42.41,3.3,55.56,9.88,13.15,6.59,19.73,18.35,19.73,35.29,0,8.28-2.2,16.85-6.58,25.69-4.39,8.85-10.51,17.03-18.37,24.56-7.87,7.53-17.46,14.03-28.8,19.48-11.34,5.46-23.81,9.13-37.42,11.01-2.72,.38-3.63,1.89-2.72,4.52,5.74,13.18,13.68,29.64,23.81,49.4,10.13,19.76,21.54,40.74,34.24,62.95,6.65,11.29,14.13,22.2,22.45,32.74,8.31,10.53,17.31,19.85,26.99,27.95,9.67,8.09,20.03,14.58,31.07,19.48,11.03,4.89,22.45,7.34,34.24,7.34,18.14,0,36.13-5.84,53.98-17.5,1.81-1.51,2.72-1.13,2.72,1.13,0,1.5-.61,2.44-1.81,2.82-9.68,6.4-19.81,11.57-30.39,15.53-10.59,3.95-21.93,5.93-34.02,5.93-17.24,0-32.36-2.17-45.36-6.49-13-4.33-24.95-11.01-35.83-20.04-10.89-9.03-21.25-20.7-31.07-35-9.83-14.31-20.03-31.62-30.62-51.94-3.03-6.02-6.65-13.45-10.89-22.3-4.24-8.84-8.62-17.97-13.15-27.38-4.54-9.4-8.84-18.53-12.93-27.38-4.08-8.84-7.48-16.09-10.21-21.74,0-1.5,.45-2.26,1.36-2.26,13.61,0,26.08-1.5,37.42-4.52,11.34-3.01,21.16-7.62,29.48-13.83,8.31-6.21,14.81-14.11,19.5-23.71,4.68-9.6,7.03-20.79,7.03-33.59,0-4.52-.68-9.32-2.04-14.4-1.36-5.08-3.78-9.6-7.26-13.55-3.48-3.95-8.09-7.24-13.83-9.88-5.75-2.63-13-3.95-21.77-3.95-3.03,0-5.97,.48-8.84,1.41-2.88,.94-5.37,2.92-7.48,5.93-3.33,4.9-8.02,13.08-14.06,24.56-6.05,11.49-12.7,24.75-19.96,39.8-7.26,15.06-14.82,31.05-22.68,47.99-7.87,16.94-15.35,33.41-22.45,49.4-7.11,16-13.38,30.49-18.82,43.47-5.44,12.99-9.52,23.24-12.25,30.77-.3,.76-.91,1.13-1.81,1.13-1.52-.37-3.03-.65-4.54-.85-1.52-.19-3.03-.28-4.54-.28h-5.44c-2.12,0-4.39,.38-6.8,1.13-3.63,2.63-7.11,6.21-10.43,10.73-.61,0-1.29-.19-2.04-.56-.76-.38-.84-.94-.23-1.69,27.82-50.43,51.25-95.41,70.3-134.93,19.05-39.52,35.53-75.65,49.44-108.4,.91-3.01,1.13-4.89,.68-5.65-.45-.75-1.44-1.13-2.95-1.13-9.07,.76-18.14,3.02-27.21,6.77-9.07,3.77-17.54,8.28-25.4,13.55-5.15,3.77-9.98,8.85-14.51,15.24-4.54,6.4-8.47,13.36-11.79,20.89Z"/><path d="M337.41,183.48c-5.15,7.9-11.27,16.09-18.37,24.56-7.11,8.47-14.82,16.19-23.13,23.15-8.32,6.97-16.94,12.61-25.85,16.94-8.92,4.32-17.77,6.49-26.53,6.49-14.22,0-21.32-7.9-21.32-23.71,0-10.53,2.19-21.92,6.58-34.16,4.38-12.23,10.05-23.52,17.01-33.87,6.95-10.35,14.58-19,22.91-25.97,8.31-6.96,16.25-10.44,23.81-10.44,4.23,0,7.18,.94,8.84,2.82,1.66,1.89,2.49,4.33,2.49,7.34,0,4.52-1.13,9.41-3.4,14.68-2.27,5.28-5.67,10.26-10.21,14.96-4.54,4.71-10.28,8.66-17.24,11.86-6.96,3.2-15.27,4.8-24.95,4.8-1.52,3.39-3.17,8.75-4.99,16.09-1.81,7.34-2.72,14.78-2.72,22.3,0,15.44,5.59,23.15,16.78,23.15,6.95,0,14.13-2.06,21.54-6.21,7.41-4.14,14.59-9.32,21.54-15.53,6.95-6.21,13.38-12.99,19.28-20.32,5.9-7.34,10.81-14.2,14.74-20.61,.6-.75,1.28-.93,2.04-.56,.75,.38,1.13,1.13,1.13,2.26Zm-47.63-44.04c0-4.89-1.97-7.34-5.9-7.34-3.03,0-6.12,1.41-9.3,4.23-3.17,2.82-6.28,6.49-9.3,11.01-3.03,4.52-5.9,9.41-8.62,14.68-2.72,5.27-4.99,10.36-6.8,15.24,.6,.38,1.66,.66,3.17,.85,1.51,.19,2.72,.28,3.63,.28,8.77,0,16.48-3.85,23.13-11.57,6.65-7.71,9.98-16.84,9.98-27.38Z"/><path d="M407.71,137.75c-.31,7.15-2.57,14.96-6.8,23.43-4.24,8.47-9.38,16.94-15.42,25.41-6.05,8.47-12.78,16.75-20.18,24.84-7.41,8.1-14.67,15.24-21.77,21.45-7.11,6.21-13.69,11.29-19.73,15.24-6.05,3.95-10.74,5.93-14.06,5.93l-7.26-9.03c0-1.5,.6-2.06,1.81-1.69,6.95-.75,12.7-4.04,17.24-9.88,4.54-5.83,8.01-17.4,10.43-34.72,.6-4.14,1.2-8.75,1.81-13.83,.6-5.08,1.2-9.97,1.81-14.68,.6-4.7,1.28-8.94,2.04-12.7,.75-3.76,1.43-6.4,2.04-7.9,1.2-4.52,1.59-7.24,1.13-8.19-.45-.94-1.89-1.41-4.31-1.41l-13.15,2.82c-2.72-1.5-2.57-2.82,.45-3.95,6.05-1.13,13.15-2.44,21.32-3.95,8.16-1.5,14.66-3.19,19.5-5.08,.91,.76,1.06,1.51,.45,2.26-1.21,1.13-2.57,2.45-4.08,3.95-1.52,1.51-2.72,3.58-3.63,6.21-1.52,4.15-2.8,9.23-3.86,15.24-1.06,6.02-2.04,11.86-2.95,17.5s-1.74,10.82-2.49,15.53c-.76,4.71-1.44,8-2.04,9.88-1.81,6.4-4.84,12.61-9.07,18.63-4.24,6.02-8.47,11.11-12.7,15.24-1.21,2.64-1.06,3.39,.45,2.26,8.77-3.76,17.16-8.75,25.17-14.96,8.01-6.21,15.19-13.55,21.54-22.02,6.35-8.47,11.57-17.97,15.65-28.51,4.08-10.53,6.58-22.02,7.48-34.44,.91-14.68-.91-24.28-5.44-28.79-.61-.37-.76-.75-.45-1.13,.3-.37,1.36-.37,3.18,0,5.44,.76,9.67,3.95,12.7,9.6,3.02,5.65,4.08,12.8,3.18,21.45Z"/><path d="M516.57,176.71c-7.26,11.67-15.58,22.78-24.95,33.31-9.38,10.54-17.99,19.01-25.85,25.4-6.05,4.9-12.25,8.66-18.6,11.29-6.35,2.64-12.1,3.95-17.24,3.95-1.81,0-3.93-.19-6.35-.56-2.42-.37-4.61-1.31-6.58-2.82-1.97-1.5-3.63-3.48-4.99-5.93-1.36-2.44-2.04-5.73-2.04-9.88,0-4.89,1.51-11.57,4.54-20.04,3.02-8.47,6.58-17.22,10.66-26.25,4.08-9.03,8.16-17.69,12.25-25.97,4.08-8.27,7.33-14.48,9.75-18.63,1.51-3.01,4.15-5.55,7.94-7.62,3.78-2.06,6.27-3.11,7.48-3.11,1.51,0,2.27,.56,2.27,1.69,0,.76-.23,1.89-.68,3.39-.45,1.51-.98,2.64-1.59,3.39-3.93,7.53-7.94,15.81-12.02,24.84-4.08,9.03-7.79,17.78-11.11,26.25-3.33,8.47-5.97,16.28-7.94,23.43-1.97,7.15-2.95,12.8-2.95,16.94,0,4.52,.98,7.82,2.95,9.88,1.96,2.07,4.61,3.11,7.94,3.11,6.05,0,12.7-2.54,19.96-7.62,7.26-5.08,14.44-11.19,21.54-18.35,7.1-7.15,13.68-14.68,19.73-22.58,6.05-7.9,10.73-14.68,14.06-20.32,1.51-1.88,2.34-2.35,2.5-1.41,.15,.94-.08,2.36-.68,4.23Zm-20.41-125.9c0,4.52-1.59,9.03-4.76,13.55-3.18,4.52-6.73,6.77-10.66,6.77-3.63,0-5.44-2.26-5.44-6.77,0-4.89,1.43-9.6,4.31-14.11,2.87-4.52,6.42-6.78,10.66-6.78,3.93,0,5.9,2.45,5.9,7.34Z"/><path d="M607.74,183.48c-5.14,7.9-11.27,16.09-18.37,24.56-7.11,8.47-14.82,16.19-23.13,23.15-8.32,6.97-16.94,12.61-25.85,16.94-8.92,4.32-17.77,6.49-26.53,6.49-14.22,0-21.32-7.9-21.32-23.71,0-10.53,2.19-21.92,6.58-34.16,4.38-12.23,10.05-23.52,17.01-33.87,6.95-10.35,14.58-19,22.91-25.97,8.31-6.96,16.25-10.44,23.81-10.44,4.23,0,7.18,.94,8.84,2.82,1.66,1.89,2.49,4.33,2.49,7.34,0,4.52-1.13,9.41-3.4,14.68-2.27,5.28-5.67,10.26-10.21,14.96-4.54,4.71-10.28,8.66-17.24,11.86-6.96,3.2-15.27,4.8-24.95,4.8-1.52,3.39-3.17,8.75-4.99,16.09-1.81,7.34-2.72,14.78-2.72,22.3,0,15.44,5.59,23.15,16.78,23.15,6.95,0,14.13-2.06,21.54-6.21,7.41-4.14,14.59-9.32,21.54-15.53,6.95-6.21,13.38-12.99,19.28-20.32,5.9-7.34,10.81-14.2,14.74-20.61,.6-.75,1.28-.93,2.04-.56,.75,.38,1.13,1.13,1.13,2.26Zm-47.62-44.04c0-4.89-1.97-7.34-5.9-7.34-3.03,0-6.12,1.41-9.3,4.23-3.17,2.82-6.28,6.49-9.3,11.01-3.03,4.52-5.9,9.41-8.62,14.68-2.72,5.27-4.99,10.36-6.8,15.24,.6,.38,1.66,.66,3.18,.85,1.51,.19,2.72,.28,3.63,.28,8.77,0,16.48-3.85,23.13-11.57,6.65-7.71,9.98-16.84,9.98-27.38Z"/><path d="M795.97,132.67c-3.93,1.51-8.84,2.92-14.74,4.23-5.9,1.32-11.95,2.54-18.14,3.67-6.2,1.13-12.1,2.07-17.69,2.82-5.6,.76-10.06,1.32-13.38,1.69-1.52,.38-2.49,1.32-2.95,2.82-.45,1.51-.68,3.2-.68,5.08,0,10.16-1.13,20.61-3.4,31.33-2.27,10.73-5.15,20.89-8.62,30.49-3.48,9.6-7.33,18.26-11.57,25.97-4.24,7.72-8.47,13.83-12.7,18.35-5.14,5.65-10.21,9.97-15.19,12.98-4.99,3.01-10.96,4.52-17.92,4.52-7.87,0-14.06-3.02-18.6-9.03-4.54-6.02-6.8-13.93-6.8-23.71,0-4.14,.3-8.09,.91-11.86-5.75,4.15-12.1,8.28-19.05,12.42-6.96,4.15-13.76,6.21-20.41,6.21-3.63,0-6.58-1.41-8.84-4.23-2.27-2.82-3.4-7.06-3.4-12.7,0-6.77,1.59-14.58,4.76-23.43,3.17-8.84,6.95-17.69,11.34-26.53,4.38-8.84,8.69-16.94,12.93-24.28,4.23-7.34,7.41-12.7,9.52-16.09,.91-1.5,2.04-3.11,3.4-4.8,1.36-1.69,2.95-2.91,4.76-3.67,2.42-.75,5.14-1.6,8.16-2.54,3.02-.94,5.44-1.6,7.26-1.98,1.2,0,1.81,.56,1.81,1.69,0,.76-.84,1.51-2.5,2.26-1.67,.76-3.86,2.82-6.58,6.21-4.54,6.03-9,13.46-13.38,22.3-4.39,8.85-8.39,17.7-12.02,26.53-3.63,8.85-6.51,17.22-8.62,25.12-2.12,7.9-3.17,14.11-3.17,18.63,0,2.26,.6,4.33,1.81,6.21,1.2,1.89,2.87,2.82,4.99,2.82,1.51,0,4.61-.93,9.3-2.82,4.68-1.88,10.96-6.02,18.82-12.42,2.72-14.68,6.95-29.07,12.7-43.19,5.74-14.11,12.4-26.82,19.96-38.11,1.51-2.26,4.08-5.45,7.71-9.6,3.63-4.14,7.86-6.21,12.7-6.21,2.42,0,3.86,1.04,4.31,3.11,.45,2.07,.68,3.67,.68,4.8,0,1.89-.53,5.46-1.59,10.73-1.06,5.28-3.25,11.57-6.58,18.91-3.33,7.34-7.87,15.44-13.61,24.28-5.75,8.85-13.46,18.16-23.13,27.95,0,5.28,.3,10.54,.91,15.81,.6,5.28,1.81,9.98,3.63,14.11,1.81,4.14,4.23,7.52,7.26,10.16,3.02,2.63,6.95,3.95,11.79,3.95,7.26,0,13.61-3.11,19.05-9.32,5.44-6.21,9.9-14.02,13.38-23.43,3.47-9.4,6.12-19.76,7.94-31.05,1.81-11.29,2.72-22.02,2.72-32.18,0-9.03-.38-16.37-1.13-22.02-.76-5.65-3.56-8.84-8.39-9.6-1.21-1.5-1.06-2.63,.45-3.39,1.81,0,4.08-.85,6.8-2.54,2.72-1.69,4.68-2.54,5.9-2.54,.6,0,1.2,.48,1.81,1.41,.6,.94,1.88,1.89,3.86,2.82,1.96,.94,4.91,1.89,8.84,2.82,3.93,.94,9.53,1.41,16.78,1.41,8.77,0,17.69-.85,26.76-2.54,9.07-1.69,15.42-3.29,19.05-4.8,1.2-.37,2.04,0,2.5,1.13s-.38,2.07-2.5,2.82Zm-113.85,16.37c0-.75-.23-2.26-.68-4.52s-1.59-3.39-3.4-3.39c-1.52,0-3.63,1.51-6.35,4.52-2.72,3.02-5.52,7.53-8.39,13.55-2.88,6.03-5.67,13.65-8.39,22.86-2.72,9.23-4.84,20.04-6.35,32.46,12.09-12.04,20.71-23.99,25.85-35.85,5.14-11.86,7.71-21.74,7.71-29.64Z"/></g><g><path class="cls-1" d="M83.15,298.88H48.91l-10.91-41.76h120.53l10.54,41.76h-42.27v141.69h-43.65v-141.69Z"/><path class="cls-1" d="M215.1,342.71c-2.09-1.46-4.81-2.28-8.15-2.46h-2.26c-10.2,.43-15.3,7.76-15.3,21.98v78.34h-40.13v-78.34c0-37.66,18.48-57.44,55.44-59.34h2.26c2.76,.09,5.48,.35,8.15,.78v39.04Z"/><path class="cls-1" d="M260.25,281.82c-1.84,3.19-4.35,5.77-7.52,7.76-3.18,1.98-6.69,2.97-10.54,2.97s-7.32-.95-10.41-2.84c-3.18-1.98-5.69-4.61-7.53-7.89-1.92-3.45-2.88-7.11-2.88-10.99s.92-7.58,2.76-10.86c2.01-3.36,4.56-5.99,7.65-7.89,3.09-1.9,6.56-2.84,10.41-2.84s7.36,.95,10.54,2.84c3.09,1.9,5.6,4.52,7.52,7.89,1.84,3.28,2.76,6.9,2.76,10.86s-.92,7.8-2.76,10.99Zm2.63,26.5v132.51h-40.01v-132.38l40.01-.13Z"/><path class="cls-1" d="M269.28,373.09c.08-13.19,3.47-25.04,10.16-35.55,6.69-10.77,15.72-19.22,27.09-25.34,11.37-6.21,23.45-9.31,36.25-9.31,9.78,0,19.06,1.77,27.84,5.3,8.69,3.28,16.6,8.23,23.7,14.87,7.02,6.64,12.46,14.22,16.3,22.75,3.84,8.53,5.77,17.93,5.77,28.18s-1.97,19.35-5.89,28.05c-3.85,8.62-9.24,16.16-16.18,22.62-6.94,6.55-14.84,11.51-23.7,14.87-8.95,3.36-18.23,5.04-27.84,5.04s-18.69-1.68-27.72-5.04l-2.88-1.29-2.88-1.29v54.55l-40.01-.13v-118.29Zm40.01,.91c0,6.12,1.55,11.63,4.64,16.55,3.09,5.09,7.23,9.14,12.42,12.15,5.1,3.02,10.58,4.52,16.43,4.52s11.37-1.51,16.56-4.52c5.18-3.02,9.32-7.07,12.42-12.15,3.09-5,4.64-10.51,4.64-16.55,0-9.13-3.35-17.06-10.03-23.79-6.61-6.64-14.47-9.95-23.58-9.95s-16.85,3.32-23.45,9.95c-6.69,6.64-10.03,14.57-10.03,23.79Z"/><path class="cls-1" d="M422.67,257.12l40.01-.13v183.31l-40.01,.52v-183.7Z"/><path class="cls-1" d="M604.28,345.55c3.76,8.71,5.64,18.01,5.64,27.92v1.16c0,.43-.04,.91-.13,1.42l-.25,2.2h-15.55v.26h-86.29c1,7.24,4.05,13.49,9.16,18.75,6.44,6.55,13.96,9.83,22.57,9.83s16.22-3.27,22.58-9.83l.25-.26,.38-.52,.38-.39,.25-.39,21.57,31.8c-6.19,5.17-12.46,9.09-18.81,11.76-8.53,3.45-17.39,5.17-26.59,5.17-12.46,0-24.04-3.06-34.74-9.18-10.96-6.21-19.61-14.69-25.96-25.47-6.52-10.77-9.78-22.88-9.78-36.33,0-10.08,1.88-19.39,5.64-27.92,3.76-8.62,8.95-16.12,15.55-22.49,6.69-6.55,14.21-11.51,22.57-14.87,8.61-3.45,17.52-5.17,26.71-5.17s18.06,1.73,26.59,5.17c8.45,3.36,16.01,8.27,22.7,14.74,6.6,6.29,11.79,13.83,15.55,22.62Zm-64.84-5.17c-5.6,0-10.87,1.47-15.8,4.4-3.01,1.9-5.94,4.57-8.78,8.02h49.17c-2.84-3.45-5.77-6.12-8.78-8.02-4.94-2.93-10.2-4.4-15.8-4.4Z"/><path class="cls-1" d="M762.43,257.25v119.71c0,13.88-3.26,25.94-9.78,36.2-6.52,10.34-15.51,18.19-26.97,23.53-11.54,5.43-24.75,8.14-39.63,8.14-13.96,0-26.17-2.33-36.62-6.98-10.54-4.65-18.69-11.81-24.46-21.46-5.85-9.65-8.78-21.72-8.78-36.2v-123.07l43.77,.13v110.02c0,7.15,.79,13.32,2.38,18.49,1.67,5.43,4.51,9.65,8.53,12.67,3.93,3.19,9.36,4.78,16.3,4.78,12.96,0,21.49-3.92,25.59-11.76,4.01-7.93,6.02-19.26,6.02-34v-100.32l43.65,.13Z"/><path class="cls-1" d="M834.3,340.38c-10.2,.43-15.3,7.76-15.3,21.98v78.21h-40.13v-78.21c0-37.66,18.48-57.44,55.44-59.34h2.26c36.96,1.9,55.44,21.68,55.44,59.34v78.21h-40.13v-78.21c0-14.22-5.1-21.54-15.3-21.98h-2.26Z"/><path class="cls-1" d="M937.14,281.82c-1.84,3.19-4.35,5.77-7.53,7.76-3.18,1.98-6.69,2.97-10.54,2.97s-7.32-.95-10.41-2.84c-3.18-1.98-5.69-4.61-7.53-7.89-1.92-3.45-2.88-7.11-2.88-10.99s.92-7.58,2.76-10.86c2.01-3.36,4.56-5.99,7.65-7.89,3.09-1.9,6.56-2.84,10.41-2.84s7.36,.95,10.54,2.84c3.09,1.9,5.6,4.52,7.53,7.89,1.84,3.28,2.76,6.9,2.76,10.86s-.92,7.8-2.76,10.99Zm2.63,26.5v132.51h-40.01v-132.38l40.01-.13Z"/></g><path d="M38.96,65.49c-.61,.38-1.21,.48-1.81,.28-.61-.19-.91-.65-.91-1.41,.91-3.01,1.81-6.68,2.72-11.01,.91-4.32,1.66-8.19,2.27-11.57,0-3.76,1.81-6.96,5.44-9.6,7.86-5.27,16.7-10.16,26.53-14.68,9.82-4.52,19.57-8.09,29.26-10.73C120.3,2.26,138.89,0,158.25,0c23.88,0,42.41,3.3,55.56,9.88,13.15,6.59,19.73,18.35,19.73,35.29,0,8.28-2.2,16.85-6.58,25.69-4.39,8.85-10.51,17.03-18.37,24.56-7.87,7.53-17.46,14.03-28.8,19.48-11.34,5.46-23.81,9.13-37.42,11.01-2.72,.38-3.63,1.89-2.72,4.52,5.74,13.18,13.68,29.64,23.81,49.4,10.13,19.76,21.54,40.74,34.24,62.95,6.65,11.29,14.13,22.2,22.45,32.74,8.31,10.53,17.31,19.85,26.99,27.95,9.67,8.09,20.03,14.58,31.07,19.48,11.03,4.89,22.45,7.34,34.24,7.34,18.14,0,36.13-5.84,53.98-17.5,1.81-1.51,2.72-1.13,2.72,1.13,0,1.5-.61,2.44-1.81,2.82-9.68,6.4-19.81,11.57-30.39,15.53-10.59,3.95-21.93,5.93-34.02,5.93-17.24,0-32.36-2.17-45.36-6.49-13-4.33-24.95-11.01-35.83-20.04-10.89-9.03-21.25-20.7-31.07-35-9.83-14.31-20.03-31.62-30.62-51.94-3.03-6.02-6.65-13.45-10.89-22.3-4.24-8.84-8.62-17.97-13.15-27.38-4.54-9.4-8.84-18.53-12.93-27.38-4.08-8.84-7.48-16.09-10.21-21.74,0-1.5,.45-2.26,1.36-2.26,13.61,0,26.08-1.5,37.42-4.52,11.34-3.01,21.16-7.62,29.48-13.83,8.31-6.21,14.81-14.11,19.5-23.71,4.68-9.6,7.03-20.79,7.03-33.59,0-4.52-.68-9.32-2.04-14.4-1.36-5.08-3.78-9.6-7.26-13.55-3.48-3.95-8.09-7.24-13.83-9.88-5.75-2.63-13-3.95-21.77-3.95-3.03,0-5.97,.48-8.84,1.41-2.88,.94-5.37,2.92-7.48,5.93-3.33,4.9-8.02,13.08-14.06,24.56-6.05,11.49-12.7,24.75-19.96,39.8-7.26,15.06-14.82,31.05-22.68,47.99-7.87,16.94-15.35,33.41-22.45,49.4-7.11,16-13.38,30.49-18.82,43.47-5.44,12.99-9.52,23.24-12.25,30.77-.3,.76-.91,1.13-1.81,1.13-1.52-.37-3.03-.65-4.54-.85-1.52-.19-3.03-.28-4.54-.28h-5.44c-2.12,0-4.39,.38-6.8,1.13-3.63,2.63-7.11,6.21-10.43,10.73-.61,0-1.29-.19-2.04-.56-.76-.38-.84-.94-.23-1.69,27.82-50.43,51.25-95.41,70.3-134.93,19.05-39.52,35.53-75.65,49.44-108.4,.91-3.01,1.13-4.89,.68-5.65-.45-.75-1.44-1.13-2.95-1.13-9.07,.76-18.14,3.02-27.21,6.77-9.07,3.77-17.54,8.28-25.4,13.55-5.15,3.77-9.98,8.85-14.51,15.24-4.54,6.4-8.47,13.36-11.79,20.89Z"/></g></g></svg>